<svg xmlns="http://www.w3.org/2000/svg" xmlns:xlink="http://www.w3.org/1999/xlink" xmlns:lucid="lucid" width="972" height="355"><g transform="translate(-20 -129)" lucid:page-tab-id="3d1rrcLtfdPh"><path d="M160 278.88v56.28L209.5 360l49.5-24.84v-14.04l-42.07-5.28v-31.68l42.07-5.28v-14.04L209.5 240 160 264.84v14.04z" fill="#876929"/><path d="M160.02 321.08l49.47 14.9v24L160 335.2v-14.1z" fill="#876929"/><path d="M166.3 338.32l-6.3-3.15V264.8l6.33-3.13-.02 76.65z" fill="#876929"/><path d="M216.92 315.85l-50.6 7.13V277l50.6 7.17v31.68zM259 278.92l-49.5-14.95V240l49.5 24.87v14.05zM258.97 321.1L209.5 336v24l49.47-24.86V321.1z" fill="#d9a741"/><path d="M191.26 312.86l18.23 2.28V284.7l-18.24 2.32v25.84zM172.9 310.6l11.83 1.46v-24.18l-11.83 1.5v21.2z" fill="#876929"/><path d="M166.33 277l43.18-13 49.5 14.9-42.08 5.25-50.6-7.16z" fill="#624a1e"/><path d="M166.3 322.98L209.5 336l49.48-14.9-42.06-5.26-50.6 7.14z" fill="#fad791"/><path d="M258.97 308.88l-49.47 6.26V284.7l49.47 6.34v17.84z" fill="#d9a741"/><use xlink:href="#a" transform="matrix(1,0,0,1,160,360) translate(11.953333333333326 28.000000000000004)"/><use xlink:href="#b" transform="matrix(1,0,0,1,160,360) translate(4.859999999999999 68)"/><path d="M574 278.88v56.28L623.5 360l49.5-24.84v-14.04l-42.08-5.28v-31.68l42.08-5.28v-14.04L623.5 240 574 264.84v14.04z" fill="#876929"/><path d="M574.02 321.08l49.47 14.9v24L574 335.2v-14.1z" fill="#876929"/><path d="M580.3 338.32l-6.3-3.15V264.8l6.33-3.13-.02 76.65z" fill="#876929"/><path d="M630.92 315.85l-50.6 7.13V277l50.6 7.17v31.68zM673 278.92l-49.5-14.95V240l49.5 24.87v14.05zM672.97 321.1L623.5 336v24l49.47-24.86V321.1z" fill="#d9a741"/><path d="M605.26 312.86l18.23 2.28V284.7l-18.24 2.32v25.84zM586.9 310.6l11.83 1.46v-24.18l-11.83 1.5v21.2z" fill="#876929"/><path d="M580.33 277l43.18-13 49.5 14.9-42.08 5.25-50.6-7.16z" fill="#624a1e"/><path d="M580.3 322.98L623.5 336l49.48-14.9-42.06-5.26-50.6 7.14z" fill="#fad791"/><path d="M672.97 308.88l-49.47 6.26V284.7l49.47 6.34v17.84z" fill="#d9a741"/><use xlink:href="#c" transform="matrix(1,0,0,1,574,360) translate(18.313333333333333 28.000000000000004)"/><use xlink:href="#d" transform="matrix(1,0,0,1,574,360) translate(4.859999999999999 68)"/><path d="M367 335.17l6.3 3.15 11.13-38.25-11.14-38.4-6.3 3.14v70.37z" fill="#9d5025"/><path d="M385.48 264.55l-12.18-2.83v76.6l12.18-2.84v-70.93z" fill="#f58536"/><path d="M380.87 257.9l9.25-4.7 11.54 46.88-11.54 46.68-9.25-4.67v-84.2z" fill="#9d5025"/><path d="M409.07 340.5l-18.94 6.08V253.2l18.94 6.08v81.23z" fill="#f58536"/><path d="M452.1 269.63h7.56v58.23l-7.57-.4v-57.83z" fill="#9d5025"/><path d="M422.7 270.47l8.5-4.4 27.87 3.56.82 7.45-7.64 1.08-29.57-7.7z" fill="#6b3a19"/><path d="M422.94 329.5l8.48 4.4 28.7-11-7.62-1.07-29.56 7.68z" fill="#fbbf93"/><path d="M425.08 317.15l15.17 2.04v-38.4l-15.17 2.03v34.32z" fill="#9d5025"/><path d="M401.66 352.56l14.8 7.44 12.72-60.12-12.7-59.88-14.82 7.44v105.12z" fill="#9d5025"/><path d="M416.5 240v120l49.5-24.84v-70.32zm43.15 83.04l-28.36 8.52v-63.12l28.35 8.52z" fill="#f58536"/><path d="M440.25 280.8v38.5l15.78-19.25-15.78-19.25z" fill="#f58536"/><use xlink:href="#e" transform="matrix(1,0,0,1,367,360) translate(13.766666666666666 28.000000000000004)"/><use xlink:href="#f" transform="matrix(1,0,0,1,367,360) translate(-9.166666666666664 68)"/><path d="M781 335.17l6.3 3.15 11.13-38.25-11.14-38.4-6.3 3.14v70.37z" fill="#9d5025"/><path d="M799.48 264.55l-12.18-2.83v76.6l12.18-2.84v-70.93z" fill="#f58536"/><path d="M794.87 257.9l9.25-4.7 11.54 46.88-11.54 46.68-9.25-4.67v-84.2z" fill="#9d5025"/><path d="M823.07 340.5l-18.94 6.08V253.2l18.94 6.08v81.23z" fill="#f58536"/><path d="M866.1 269.63h7.56v58.23l-7.57-.4v-57.83z" fill="#9d5025"/><path d="M836.7 270.47l8.5-4.4 27.87 3.56.82 7.45-7.64 1.08-29.57-7.7z" fill="#6b3a19"/><path d="M836.93 329.5l8.5 4.4 28.7-11-7.63-1.07-29.57 7.68z" fill="#fbbf93"/><path d="M839.08 317.15l15.17 2.04v-38.4l-15.17 2.03v34.32z" fill="#9d5025"/><path d="M815.66 352.56l14.8 7.44 12.72-60.12-12.7-59.88-14.82 7.44v105.12z" fill="#9d5025"/><path d="M830.5 240v120l49.5-24.84v-70.32zm43.15 83.04l-28.36 8.52v-63.12l28.35 8.52z" fill="#f58536"/><path d="M854.25 280.8v38.5l15.78-19.25-15.78-19.25z" fill="#f58536"/><use xlink:href="#g" transform="matrix(1,0,0,1,781,360) translate(18.313333333333333 28.000000000000004)"/><use xlink:href="#h" transform="matrix(1,0,0,1,781,360) translate(-5.633333333333333 68)"/><path d="M466 310h96.07" stroke="#000" stroke-width="2" fill="none"/><path/><path d="M577.07 310l-14.27 4.64v-9.28z" stroke="#000" stroke-width="2"/><path d="M664.1 310h98.66" stroke="#000" stroke-width="2" fill="none"/><path d="M664.1 311h-3v-.62l3-.38zM777.76 310l-14.26 4.64v-9.28z"/><path d="M781 310l-18.5 6v-12zm-16.5 3.26l10.03-3.26-10.03-3.26z"/><path d="M250.1 310h98.66" stroke="#000" stroke-width="2" fill="none"/><path d="M250.1 311h-3v-.62l3-.38zM363.76 310l-14.26 4.64v-9.28z"/><path d="M367 310l-18.5 6v-12zm-16.5 3.26l10.03-3.26-10.03-3.26z"/><path d="M880 310h35c2.75 0 5-2.24 5-5V195c0-2.76-2.25-5-5-5H131.3c-2.76 0-5 2.24-5 5v110c0 2.76 2.24 5 5 5h16.77" stroke="#000" stroke-width="2" fill="none"/><path/><path d="M163.07 310l-14.27 4.64v-9.28z" stroke="#000" stroke-width="2"/><path d="M60 310h88.07" stroke="#000" stroke-width="2" fill="none"/><path d="M163.07 310l-14.27 4.64v-9.28z" stroke="#000" stroke-width="2"/><defs><path d="M205-594v183h250v108H205v190h280V0H64v-706h421v112H205" id="i"/><path d="M305-141l140-413h150L390 0H218L13-554h151" id="j"/><path d="M313-561c180 0 291 122 267 311H174c1 89 50 142 132 144 65 1 112-35 123-89h149C552-74 458 7 313 7 140 7 36-101 36-277s103-284 277-284zm130 249c18-127-143-178-226-103-26 23-40 58-43 103h269" id="k"/><path d="M394-562c134 0 210 98 210 240V0H464v-306c1-84-46-139-127-139-85 0-132 61-132 151V0H64v-554h141v111c26-70 97-119 189-119" id="l"/><path d="M235-193c-7 76 54 74 125 72V0C192 11 94-30 94-195v-240H17v-119h77v-137h141v137h124v119H235v242" id="m"/><g id="a"><use transform="matrix(0.02666666666666667,0,0,0.02666666666666667,0,0)" xlink:href="#i"/><use transform="matrix(0.02666666666666667,0,0,0.02666666666666667,14.000000000000002,0)" xlink:href="#j"/><use transform="matrix(0.02666666666666667,0,0,0.02666666666666667,30.240000000000002,0)" xlink:href="#k"/><use transform="matrix(0.02666666666666667,0,0,0.02666666666666667,46.800000000000004,0)" xlink:href="#l"/><use transform="matrix(0.02666666666666667,0,0,0.02666666666666667,64.50666666666667,0)" xlink:href="#m"/></g><path d="M748-355c0 139-64 244-151 302l167 182H593L483-3c-27 7-56 10-88 10C180 0 42-139 42-355s139-361 353-361 353 145 353 361zm-562 0c0 138 73 231 209 231s209-93 209-231-73-231-209-231-209 93-209 231" id="n"/><path d="M320-109c86 0 133-60 133-151v-294h141V0H453v-112C427-42 356 7 264 7 130 7 54-91 54-232v-322h140v306c-1 83 46 139 126 139" id="o"/><g id="b"><use transform="matrix(0.02666666666666667,0,0,0.02666666666666667,0,0)" xlink:href="#n"/><use transform="matrix(0.02666666666666667,0,0,0.02666666666666667,21.066666666666666,0)" xlink:href="#o"/><use transform="matrix(0.02666666666666667,0,0,0.02666666666666667,38.61333333333333,0)" xlink:href="#k"/><use transform="matrix(0.02666666666666667,0,0,0.02666666666666667,55.17333333333334,0)" xlink:href="#o"/><use transform="matrix(0.02666666666666667,0,0,0.02666666666666667,72.72,0)" xlink:href="#k"/></g><path d="M544-706v112H349V0H208v-594H14v-112h530" id="p"/><path d="M281-561c96-1 165 51 191 122v-115h140V0H472v-116C446-45 377 8 281 7 121 1 36-110 36-277s85-278 245-284zm44 123c-91 0-148 67-146 161-2 95 55 160 146 160 87 1 147-68 147-160 0-93-59-161-147-161" id="q"/><path d="M48-399c1-105 91-162 207-162 134 0 219 75 238 187H361c-10-51-48-88-109-88s-101 60-60 100c41 39 158 44 212 70 52 22 98 64 96 140C499-49 407 10 295 7 154 8 61-59 43-180h135c6 56 53 88 117 88 62 0 100-66 57-102-69-59-225-42-276-117-18-21-28-51-28-88" id="r"/><path d="M388 0L205-242V0H64v-740h141v416l182-230h167L321-278 560 0H388" id="s"/><g id="c"><use transform="matrix(0.02666666666666667,0,0,0.02666666666666667,0,0)" xlink:href="#p"/><use transform="matrix(0.02666666666666667,0,0,0.02666666666666667,14.88,0)" xlink:href="#q"/><use transform="matrix(0.02666666666666667,0,0,0.02666666666666667,32.906666666666666,0)" xlink:href="#r"/><use transform="matrix(0.02666666666666667,0,0,0.02666666666666667,47.333333333333336,0)" xlink:href="#s"/></g><g id="d"><use transform="matrix(0.02666666666666667,0,0,0.02666666666666667,0,0)" xlink:href="#n"/><use transform="matrix(0.02666666666666667,0,0,0.02666666666666667,21.066666666666666,0)" xlink:href="#o"/><use transform="matrix(0.02666666666666667,0,0,0.02666666666666667,38.61333333333333,0)" xlink:href="#k"/><use transform="matrix(0.02666666666666667,0,0,0.02666666666666667,55.17333333333334,0)" xlink:href="#o"/><use transform="matrix(0.02666666666666667,0,0,0.02666666666666667,72.72,0)" xlink:href="#k"/></g><path d="M549-193C543-63 452 5 313 7 162 5 59-67 44-204h150c6 56 49 100 113 100 79 0 117-83 72-138-46-53-174-70-236-108-55-30-103-83-101-170-1-127 106-196 239-196 142 0 242 74 254 198H383c-8-50-44-87-103-87-74 0-112 78-68 131 46 52 173 73 234 108 55 31 105 84 103 173" id="t"/><g id="e"><use transform="matrix(0.02666666666666667,0,0,0.02666666666666667,0,0)" xlink:href="#t"/><use transform="matrix(0.02666666666666667,0,0,0.02666666666666667,15.706666666666667,0)" xlink:href="#m"/><use transform="matrix(0.02666666666666667,0,0,0.02666666666666667,26.293333333333337,0)" xlink:href="#q"/><use transform="matrix(0.02666666666666667,0,0,0.02666666666666667,44.32000000000001,0)" xlink:href="#m"/><use transform="matrix(0.02666666666666667,0,0,0.02666666666666667,54.90666666666667,0)" xlink:href="#k"/></g><path d="M825-698V0H685v-487L506 0H384L205-485V0H64v-698h171l212 525 208-525h170" id="u"/><path d="M36-277c0-176 103-280 277-284 146-1 247 89 268 216H432c-11-56-55-95-122-95-84 2-131 68-131 163s47 161 131 163c67 0 111-39 122-95h149C560-82 459 8 313 7 140 2 36-101 36-277" id="v"/><path d="M394-562c134 0 210 98 210 240V0H464v-306c1-84-46-139-127-139-85 0-132 61-132 151V0H64v-740h141v297c26-70 97-119 189-119" id="w"/><path d="M48-713c0-47 38-78 87-77 49-1 87 30 87 77 0 46-39 77-87 76-48 1-87-30-87-76zm157 159V0H64v-554h141" id="x"/><g id="f"><use transform="matrix(0.02666666666666667,0,0,0.02666666666666667,0,0)" xlink:href="#u"/><use transform="matrix(0.02666666666666667,0,0,0.02666666666666667,23.706666666666667,0)" xlink:href="#q"/><use transform="matrix(0.02666666666666667,0,0,0.02666666666666667,41.733333333333334,0)" xlink:href="#v"/><use transform="matrix(0.02666666666666667,0,0,0.02666666666666667,58.18666666666667,0)" xlink:href="#w"/><use transform="matrix(0.02666666666666667,0,0,0.02666666666666667,75.89333333333333,0)" xlink:href="#x"/><use transform="matrix(0.02666666666666667,0,0,0.02666666666666667,83.06666666666666,0)" xlink:href="#l"/><use transform="matrix(0.02666666666666667,0,0,0.02666666666666667,100.77333333333333,0)" xlink:href="#k"/></g><g id="g"><use transform="matrix(0.02666666666666667,0,0,0.02666666666666667,0,0)" xlink:href="#p"/><use transform="matrix(0.02666666666666667,0,0,0.02666666666666667,14.88,0)" xlink:href="#q"/><use transform="matrix(0.02666666666666667,0,0,0.02666666666666667,32.906666666666666,0)" xlink:href="#r"/><use transform="matrix(0.02666666666666667,0,0,0.02666666666666667,47.333333333333336,0)" xlink:href="#s"/></g><path d="M338-650c-81-5-111 18-112 96h112v119H226V0H85v-435H14v-119h71c-5-156 91-229 253-218v122" id="y"/><path d="M205-448c36-63 103-113 196-114v151c-124-9-196 33-196 144V0H64v-554h141v106" id="z"/><g id="h"><use transform="matrix(0.02666666666666667,0,0,0.02666666666666667,0,0)" xlink:href="#t"/><use transform="matrix(0.02666666666666667,0,0,0.02666666666666667,15.706666666666667,0)" xlink:href="#q"/><use transform="matrix(0.02666666666666667,0,0,0.02666666666666667,33.733333333333334,0)" xlink:href="#m"/><use transform="matrix(0.02666666666666667,0,0,0.02666666666666667,44.32,0)" xlink:href="#x"/><use transform="matrix(0.02666666666666667,0,0,0.02666666666666667,51.49333333333333,0)" xlink:href="#r"/><use transform="matrix(0.02666666666666667,0,0,0.02666666666666667,65.92,0)" xlink:href="#y"/><use transform="matrix(0.02666666666666667,0,0,0.02666666666666667,75.46666666666667,0)" xlink:href="#x"/><use transform="matrix(0.02666666666666667,0,0,0.02666666666666667,82.64,0)" xlink:href="#k"/><use transform="matrix(0.02666666666666667,0,0,0.02666666666666667,99.2,0)" xlink:href="#z"/></g></defs></g></svg>